<svg width="1200" height="420" viewBox="0 0 1200 420" fill="none" xmlns="http://www.w3.org/2000/svg" role="img" aria-labelledby="title desc">
  <title id="title">Tarun Kumar Basera</title>
  <desc id="desc">Java developer, competitive programmer, ICPC regionalist, and LeetCode Knight.</desc>
  <defs>
    <linearGradient id="background" x1="0" y1="0" x2="1200" y2="420" gradientUnits="userSpaceOnUse">
      <stop stop-color="#0D1117"/>
      <stop offset="0.55" stop-color="#111827"/>
      <stop offset="1" stop-color="#172554"/>
    </linearGradient>
    <linearGradient id="accent" x1="0" y1="0" x2="1" y2="1">
      <stop stop-color="#3FB950"/>
      <stop offset="1" stop-color="#2EA043"/>
    </linearGradient>
    <pattern id="grid" width="44" height="44" patternUnits="userSpaceOnUse">
      <path d="M44 0H0V44" stroke="#FFFFFF" stroke-opacity="0.035"/>
    </pattern>
    <filter id="shadow" x="-20%" y="-20%" width="140%" height="160%">
      <feDropShadow dx="0" dy="18" stdDeviation="20" flood-color="#000000" flood-opacity="0.32"/>
    </filter>
  </defs>

  <rect width="1200" height="420" rx="28" fill="url(#background)"/>
  <rect width="1200" height="420" rx="28" fill="url(#grid)"/>
  <circle cx="1090" cy="-35" r="230" fill="#6E40C9" fill-opacity="0.15"/>
  <circle cx="90" cy="440" r="220" fill="#3FB950" fill-opacity="0.09"/>
  <path d="M0 353C250 305 404 428 640 367C877 306 1005 334 1200 273V420H0V353Z" fill="#FFFFFF" fill-opacity="0.025"/>

  <g transform="translate(70 62)">
    <rect width="155" height="32" rx="16" fill="url(#accent)"/>
    <circle cx="19" cy="16" r="5" fill="#FFFFFF"/>
    <text x="33" y="21" fill="#FFFFFF" font-family="Inter, ui-sans-serif, system-ui, sans-serif" font-size="12" font-weight="700" letter-spacing="0.7">OPEN TO BUILD</text>

    <text x="0" y="105" fill="#8B949E" font-family="ui-monospace, SFMono-Regular, Menlo, monospace" font-size="19">Hello, world. I'm</text>
    <text x="0" y="170" fill="#F0F6FC" font-family="Inter, ui-sans-serif, system-ui, sans-serif" font-size="56" font-weight="800" letter-spacing="-2">Tarun Kumar Basera</text>
    <text x="0" y="213" fill="#58A6FF" font-family="Inter, ui-sans-serif, system-ui, sans-serif" font-size="23" font-weight="650">Software Engineer  ·  Competitive Programmer</text>

    <g transform="translate(0 248)">
      <rect width="104" height="36" rx="10" fill="#F0883E" fill-opacity="0.16" stroke="#F0883E" stroke-opacity="0.5"/>
      <text x="52" y="23" text-anchor="middle" fill="#F6AD55" font-family="Inter, sans-serif" font-size="13" font-weight="700">JAVA</text>
      <rect x="116" width="92" height="36" rx="10" fill="#58A6FF" fill-opacity="0.14" stroke="#58A6FF" stroke-opacity="0.5"/>
      <text x="162" y="23" text-anchor="middle" fill="#79C0FF" font-family="Inter, sans-serif" font-size="13" font-weight="700">C++</text>
      <rect x="220" width="167" height="36" rx="10" fill="#6E40C9" fill-opacity="0.18" stroke="#A371F7" stroke-opacity="0.5"/>
      <text x="303.5" y="23" text-anchor="middle" fill="#D2A8FF" font-family="Inter, sans-serif" font-size="13" font-weight="700">ICPC REGIONALIST</text>
      <rect x="399" width="164" height="36" rx="10" fill="#3FB950" fill-opacity="0.14" stroke="#3FB950" stroke-opacity="0.5"/>
      <text x="481" y="23" text-anchor="middle" fill="#7EE787" font-family="Inter, sans-serif" font-size="13" font-weight="700">LEETCODE KNIGHT</text>
    </g>
  </g>

  <g transform="translate(765 65)" filter="url(#shadow)">
    <rect width="365" height="290" rx="20" fill="#0D1117" stroke="#30363D" stroke-width="2"/>
    <rect width="365" height="46" rx="20" fill="#161B22"/>
    <path d="M0 46H365" stroke="#30363D"/>
    <circle cx="22" cy="23" r="6" fill="#FF7B72"/>
    <circle cx="42" cy="23" r="6" fill="#D29922"/>
    <circle cx="62" cy="23" r="6" fill="#3FB950"/>
    <text x="182" y="28" text-anchor="middle" fill="#8B949E" font-family="ui-monospace, SFMono-Regular, Menlo, monospace" font-size="11">Tarun.java</text>

    <g font-family="ui-monospace, SFMono-Regular, Menlo, monospace" font-size="14">
      <text x="24" y="84" fill="#FF7B72">public class</text>
      <text x="126" y="84" fill="#D2A8FF">Tarun</text>
      <text x="180" y="84" fill="#C9D1D9">{</text>

      <text x="42" y="116" fill="#79C0FF">String</text>
      <text x="98" y="116" fill="#C9D1D9">focus =</text>
      <text x="163" y="116" fill="#A5D6FF">"Backend"</text>
      <text x="248" y="116" fill="#C9D1D9">;</text>

      <text x="42" y="148" fill="#79C0FF">int</text>
      <text x="74" y="148" fill="#C9D1D9">problems =</text>
      <text x="166" y="148" fill="#79C0FF">1800</text>
      <text x="206" y="148" fill="#C9D1D9">;</text>

      <text x="42" y="180" fill="#D2A8FF">void</text>
      <text x="79" y="180" fill="#D2A8FF">solve</text>
      <text x="126" y="180" fill="#C9D1D9">() {</text>

      <text x="62" y="212" fill="#FF7B72">while</text>
      <text x="108" y="212" fill="#C9D1D9">(unsolved) {</text>

      <text x="82" y="244" fill="#D2A8FF">learn</text>
      <text x="126" y="244" fill="#C9D1D9">();</text>
      <text x="166" y="244" fill="#D2A8FF">build</text>
      <text x="210" y="244" fill="#C9D1D9">();</text>
      <text x="250" y="244" fill="#D2A8FF">compete</text>
      <text x="310" y="244" fill="#C9D1D9">();</text>

      <text x="62" y="270" fill="#C9D1D9">}</text>
      <text x="24" y="270" fill="#C9D1D9">}</text>
      <text x="338" y="270" fill="#C9D1D9">}</text>
    </g>
  </g>
</svg>
